<svg xmlns="http://www.w3.org/2000/svg" xmlns:xlink="http://www.w3.org/1999/xlink" width="512" zoomAndPan="magnify" viewBox="0 0 384 383.999986" height="512" preserveAspectRatio="xMidYMid meet" version="1.0"><rect x="-38.4" width="460.8" fill="#ffffff" y="-38.399999" height="460.799983" fill-opacity="1"/><rect x="-38.4" width="460.8" fill="#ffffff" y="-38.399999" height="460.799983" fill-opacity="1"/><path fill="#9ad0d3" d="M 384.015625 192.007812 C 384.015625 241.128906 365.585938 285.929688 335.230469 319.882812 C 300.078125 359.246094 248.941406 384.015625 192.011719 384.015625 C 135.082031 384.015625 83.929688 359.246094 48.789062 319.882812 C 18.4375 285.929688 0.0078125 241.128906 0.0078125 192.007812 C 0.0078125 85.972656 85.960938 0.00390625 192.011719 0.00390625 C 298.046875 0.00390625 384.015625 85.972656 384.015625 192.007812 " fill-opacity="1" fill-rule="nonzero"/><path fill="#000000" d="M 192.011719 227.375 C 226.808594 227.375 258.507812 188.003906 258.507812 144.773438 C 258.507812 103.925781 250.609375 63.535156 192.011719 63.535156 C 133.410156 63.535156 125.507812 103.925781 125.507812 144.773438 C 125.507812 188.003906 157.207031 227.375 192.011719 227.375 " fill-opacity="1" fill-rule="nonzero"/><path fill="#000000" d="M 335.230469 319.882812 C 300.078125 359.246094 248.941406 384.015625 192.011719 384.015625 C 135.082031 384.015625 83.929688 359.246094 48.789062 319.882812 C 48.183594 296.171875 63.976562 241.226562 144.523438 224.3125 C 158.300781 238.375 175.257812 246.328125 192.011719 246.328125 C 208.761719 246.328125 225.710938 238.375 239.484375 224.3125 C 320.046875 241.226562 335.824219 296.171875 335.230469 319.882812 " fill-opacity="1" fill-rule="nonzero"/></svg>